<?xml version="1.0" encoding="UTF-8"?>
<!DOCTYPE svg PUBLIC "-//W3C//DTD SVG 1.1//EN" "http://www.w3.org/Graphics/SVG/1.1/DTD/svg11.dtd">
<svg xmlns="http://www.w3.org/2000/svg" version="1.1" width="99px" height="99px" style="shape-rendering:geometricPrecision; text-rendering:geometricPrecision; image-rendering:optimizeQuality; fill-rule:evenodd; clip-rule:evenodd" xmlns:xlink="http://www.w3.org/1999/xlink">
<g><path style="opacity:0.805" fill="#6b2cd8" d="M 37.5,2.5 C 50.3424,2.52448 54.5091,8.52448 50,20.5C 48.0843,22.2095 45.9176,23.5428 43.5,24.5C 42.789,29.8527 42.1224,35.1861 41.5,40.5C 49.4171,40.8639 54.2504,44.8639 56,52.5C 58.6667,51.1667 61.3333,51.1667 64,52.5C 67.7943,44.46 73.6276,41.96 81.5,45C 83.5524,45.9299 85.0524,47.4299 86,49.5C 88.3119,61.3841 83.4785,66.5508 71.5,65C 66.9378,63.3729 64.1045,60.2062 63,55.5C 60.5335,56.7883 58.0335,56.7883 55.5,55.5C 52.5071,66.4968 45.5071,70.4968 34.5,67.5C 32.9582,69.8787 31.6249,72.3787 30.5,75C 34.7961,81.3142 34.4627,87.3142 29.5,93C 17.2781,97.7782 11.4448,93.6115 12,80.5C 14.8318,73.4997 19.9985,70.833 27.5,72.5C 27.6423,69.383 28.9756,66.883 31.5,65C 26.1667,58 26.1667,51 31.5,44C 33.7693,41.9771 36.4359,41.1437 39.5,41.5C 38.288,35.9551 38.288,30.4551 39.5,25C 29.3284,21.4301 26.8284,14.9301 32,5.5C 33.8761,4.39127 35.7095,3.39127 37.5,2.5 Z M 37.5,4.5 C 46.1849,4.21927 49.3516,8.21927 47,16.5C 41.0775,22.0273 36.5775,21.0273 33.5,13.5C 33.6667,12.8333 33.8333,12.1667 34,11.5C 34.3076,12.3081 34.8076,12.9747 35.5,13.5C 37.6499,11.8509 39.6499,10.0176 41.5,8C 40.0506,6.88298 38.3839,6.21631 36.5,6C 37.056,5.61742 37.3893,5.11742 37.5,4.5 Z M 32.5,49.5 C 32.5,51.1667 32.5,52.8333 32.5,54.5C 35.566,52.6274 38.566,50.4607 41.5,48C 39.4062,46.6485 37.0728,46.1485 34.5,46.5C 41.005,40.6129 46.505,41.6129 51,49.5C 51.9067,61.1346 46.74,65.3013 35.5,62C 31.6234,58.4088 30.6234,54.2421 32.5,49.5 Z M 73.5,45.5 C 79.0724,45.5646 82.4057,48.398 83.5,54C 81.5193,60.3241 77.5193,62.3241 71.5,60C 69.9903,58.6487 68.9903,56.982 68.5,55C 70.9088,54.7168 73.0755,53.2168 75,50.5C 75.4828,49.552 75.6495,48.552 75.5,47.5C 74.1266,47.6567 72.7932,47.49 71.5,47C 72.4158,46.7216 73.0825,46.2216 73.5,45.5 Z M 18.5,76.5 C 17.6993,78.0418 17.366,79.7085 17.5,81.5C 20.3113,81.1743 22.978,80.3409 25.5,79C 24.5494,78.2825 24.3828,77.4491 25,76.5C 29.8278,80.2644 30.3278,84.431 26.5,89C 19.6465,91.9941 15.3132,89.8274 13.5,82.5C 13.7781,79.2465 15.4448,77.2465 18.5,76.5 Z"/></g>
<g><path style="opacity:0.786" fill="#692cd9" d="M 34.5,46.5 C 37.0728,46.1485 39.4062,46.6485 41.5,48C 38.566,50.4607 35.566,52.6274 32.5,54.5C 32.5,52.8333 32.5,51.1667 32.5,49.5C 33.3382,49.1583 33.6716,48.4916 33.5,47.5C 34.1667,47.5 34.5,47.1667 34.5,46.5 Z"/></g>
</svg>
